<mxfile host="app.diagrams.net" modified="2023-11-11T20:22:03.710Z" agent="Mozilla/5.0 (Macintosh; Intel Mac OS X 10_15_7) AppleWebKit/537.36 (KHTML, like Gecko) Chrome/119.0.0.0 Safari/537.36" etag="fx6rqRUGEkRZg5Ma0jFU" version="22.1.0" type="github">
  <diagram name="페이지-1" id="NA8AB3OvS2FSlZ8swBov">
    <mxGraphModel dx="1565" dy="883" grid="1" gridSize="10" guides="1" tooltips="1" connect="1" arrows="1" fold="1" page="1" pageScale="1" pageWidth="827" pageHeight="1169" math="0" shadow="0">
      <root>
        <mxCell id="0" />
        <mxCell id="1" parent="0" />
        <mxCell id="26T1E3DXYQmSKuZYPeMz-1" value="Product" style="swimlane;childLayout=stackLayout;horizontal=1;startSize=50;horizontalStack=0;rounded=1;fontSize=14;fontStyle=0;strokeWidth=2;resizeParent=0;resizeLast=1;shadow=0;dashed=0;align=center;arcSize=4;whiteSpace=wrap;html=1;" vertex="1" parent="1">
          <mxGeometry x="334" y="50" width="160" height="120" as="geometry" />
        </mxCell>
        <mxCell id="26T1E3DXYQmSKuZYPeMz-2" value="model: String&lt;br&gt;manufacturer: String&lt;br&gt;height: Int&lt;br&gt;depth: Int" style="align=left;strokeColor=none;fillColor=none;spacingLeft=4;fontSize=12;verticalAlign=top;resizable=0;rotatable=0;part=1;html=1;" vertex="1" parent="26T1E3DXYQmSKuZYPeMz-1">
          <mxGeometry y="50" width="160" height="70" as="geometry" />
        </mxCell>
        <mxCell id="26T1E3DXYQmSKuZYPeMz-23" style="edgeStyle=orthogonalEdgeStyle;rounded=0;orthogonalLoop=1;jettySize=auto;html=1;exitX=0.5;exitY=0;exitDx=0;exitDy=0;entryX=0.5;entryY=1;entryDx=0;entryDy=0;" edge="1" parent="1" source="26T1E3DXYQmSKuZYPeMz-3" target="26T1E3DXYQmSKuZYPeMz-2">
          <mxGeometry relative="1" as="geometry" />
        </mxCell>
        <mxCell id="26T1E3DXYQmSKuZYPeMz-3" value="PersonalComputer" style="swimlane;childLayout=stackLayout;horizontal=1;startSize=50;horizontalStack=0;rounded=1;fontSize=14;fontStyle=0;strokeWidth=2;resizeParent=0;resizeLast=1;shadow=0;dashed=0;align=center;arcSize=4;whiteSpace=wrap;html=1;" vertex="1" parent="1">
          <mxGeometry x="20" y="250" width="160" height="120" as="geometry" />
        </mxCell>
        <mxCell id="26T1E3DXYQmSKuZYPeMz-25" style="edgeStyle=orthogonalEdgeStyle;rounded=0;orthogonalLoop=1;jettySize=auto;html=1;exitX=0.5;exitY=0;exitDx=0;exitDy=0;entryX=0.5;entryY=1;entryDx=0;entryDy=0;" edge="1" parent="1" source="26T1E3DXYQmSKuZYPeMz-6" target="26T1E3DXYQmSKuZYPeMz-2">
          <mxGeometry relative="1" as="geometry" />
        </mxCell>
        <mxCell id="26T1E3DXYQmSKuZYPeMz-6" value="Monitor" style="swimlane;childLayout=stackLayout;horizontal=1;startSize=50;horizontalStack=0;rounded=1;fontSize=14;fontStyle=0;strokeWidth=2;resizeParent=0;resizeLast=1;shadow=0;dashed=0;align=center;arcSize=4;whiteSpace=wrap;html=1;" vertex="1" parent="1">
          <mxGeometry x="227" y="250" width="160" height="120" as="geometry" />
        </mxCell>
        <mxCell id="26T1E3DXYQmSKuZYPeMz-26" style="edgeStyle=orthogonalEdgeStyle;rounded=0;orthogonalLoop=1;jettySize=auto;html=1;exitX=0.5;exitY=0;exitDx=0;exitDy=0;entryX=0.5;entryY=1;entryDx=0;entryDy=0;" edge="1" parent="1" source="26T1E3DXYQmSKuZYPeMz-9" target="26T1E3DXYQmSKuZYPeMz-2">
          <mxGeometry relative="1" as="geometry" />
        </mxCell>
        <mxCell id="26T1E3DXYQmSKuZYPeMz-9" value="Motherboard" style="swimlane;childLayout=stackLayout;horizontal=1;startSize=50;horizontalStack=0;rounded=1;fontSize=14;fontStyle=0;strokeWidth=2;resizeParent=0;resizeLast=1;shadow=0;dashed=0;align=center;arcSize=4;whiteSpace=wrap;html=1;" vertex="1" parent="1">
          <mxGeometry x="433" y="250" width="160" height="120" as="geometry" />
        </mxCell>
        <mxCell id="26T1E3DXYQmSKuZYPeMz-27" style="edgeStyle=orthogonalEdgeStyle;rounded=0;orthogonalLoop=1;jettySize=auto;html=1;exitX=0.5;exitY=0;exitDx=0;exitDy=0;entryX=0.5;entryY=1;entryDx=0;entryDy=0;" edge="1" parent="1" source="26T1E3DXYQmSKuZYPeMz-18" target="26T1E3DXYQmSKuZYPeMz-2">
          <mxGeometry relative="1" as="geometry" />
        </mxCell>
        <mxCell id="26T1E3DXYQmSKuZYPeMz-18" value="ComputerCase" style="swimlane;childLayout=stackLayout;horizontal=1;startSize=50;horizontalStack=0;rounded=1;fontSize=14;fontStyle=0;strokeWidth=2;resizeParent=0;resizeLast=1;shadow=0;dashed=0;align=center;arcSize=4;whiteSpace=wrap;html=1;" vertex="1" parent="1">
          <mxGeometry x="640" y="250" width="160" height="120" as="geometry" />
        </mxCell>
      </root>
    </mxGraphModel>
  </diagram>
</mxfile>
